<svg width="24" height="24" viewBox="0 0 24 24" fill="none" xmlns="http://www.w3.org/2000/svg">
<g clip-path="url(#clip0_3202_10944)">
<path d="M8.60589 5.97412H2.60589C2.15123 5.97412 1.7152 6.15473 1.3937 6.47622C1.07221 6.79771 0.891602 7.23375 0.891602 7.68841V21.4027C0.891602 21.8573 1.07221 22.2934 1.3937 22.6149C1.7152 22.9364 2.15123 23.117 2.60589 23.117H18.0345C18.4891 23.117 18.9252 22.9364 19.2466 22.6149C19.5681 22.2934 19.7487 21.8573 19.7487 21.4027V14.5455M0.891602 10.2598H12.0345" stroke="#273240" stroke-width="2" stroke-linecap="round" stroke-linejoin="round"/>
<path d="M5.17773 18.8312L7.74916 16.2598L5.17773 13.6884M10.3206 18.8312H12.892M12.6794 6.7695C12.0794 6.66493 12.0794 5.80093 12.6794 5.69636C13.7452 5.51124 14.7316 5.01288 15.5129 4.26485C16.2942 3.51681 16.835 2.55301 17.0663 1.49636L17.1006 1.33007C17.2326 0.735213 18.0777 0.73007 18.2149 1.32493L18.2577 1.51864C18.4977 2.57061 19.0434 3.52815 19.826 4.27087C20.6087 5.01359 21.5935 5.50835 22.6566 5.69293C23.26 5.7975 23.26 6.66664 22.6566 6.77293C21.5935 6.95751 20.6087 7.45226 19.826 8.19498C19.0434 8.93771 18.4977 9.89525 18.2577 10.9472L18.2132 11.1392C18.0777 11.7324 17.2326 11.7289 17.1023 11.1341L17.0663 10.9712C16.835 9.91456 16.2942 8.95076 15.5129 8.20272C14.7316 7.45469 13.7452 6.95633 12.6794 6.77121V6.7695Z" stroke="#273240" stroke-width="2" stroke-linecap="round" stroke-linejoin="round"/>
</g>
<defs>
<clipPath id="clip0_3202_10944">
<rect width="24" height="24" fill="white"/>
</clipPath>
</defs>
</svg>
