<svg width="39" height="48" viewBox="0 0 39 48" fill="none" xmlns="http://www.w3.org/2000/svg">
<path d="M4.47654 28.334C2.8508 25.6716 1.99365 22.6113 2.00004 19.4918C2.00004 10.0148 9.76103 2.33398 19.3334 2.33398C28.9057 2.33398 36.6667 10.0148 36.6667 19.4918C36.6731 22.6113 35.8159 25.6716 34.1902 28.334" stroke="#DB251A" stroke-width="3.25" stroke-linecap="round" stroke-linejoin="round"/>
<path d="M23.6663 19.668C22.3382 21.0611 20.8735 21.8346 19.333 21.8346M19.333 21.8346C17.7925 21.8346 16.3278 21.0611 14.9997 19.668M19.333 21.8346V31.5846M25.833 39.168L25.5513 40.5698C25.248 42.1016 25.0942 42.8665 24.7497 43.4731C24.2188 44.4082 23.3593 45.1125 22.3382 45.4491C21.6773 45.668 20.893 45.668 19.333 45.668C17.773 45.668 16.9887 45.668 16.3278 45.4513C15.3063 45.1141 14.4468 44.409 13.9163 43.4731C13.5718 42.8665 13.418 42.1016 13.1147 40.5698L12.833 39.168M9.32949 35.047C9.13016 34.449 9.03049 34.1478 9.04133 33.9051C9.05358 33.6542 9.13827 33.4122 9.28516 33.2084C9.43205 33.0046 9.63483 32.8478 9.86899 32.7568C10.0943 32.668 10.4107 32.668 11.039 32.668H27.627C28.2575 32.668 28.5717 32.668 28.797 32.7546C29.0315 32.8458 29.2345 33.003 29.3814 33.2072C29.5283 33.4114 29.6128 33.6538 29.6247 33.9051C29.6355 34.1478 29.5358 34.4468 29.3365 35.047C28.9682 36.1541 28.784 36.7088 28.5002 37.1573C27.9065 38.0946 26.9759 38.7685 25.9002 39.0401C25.3845 39.168 24.8038 39.168 23.6403 39.168H15.0257C13.8622 39.168 13.2793 39.168 12.7658 39.038C11.6904 38.7669 10.7599 38.0938 10.1658 37.1573C9.88199 36.7088 9.69782 36.1541 9.32949 35.047Z" stroke="#DB251A" stroke-width="3.25" stroke-linecap="round" stroke-linejoin="round"/>
</svg>
