<svg width="16" height="17" viewBox="0 0 16 17" fill="none" xmlns="http://www.w3.org/2000/svg">
<path d="M6 2.5C6.49445 2.5 6.9778 2.64662 7.38893 2.92133C7.80005 3.19603 8.12048 3.58648 8.3097 4.04329C8.49892 4.50011 8.54843 5.00277 8.45196 5.48773C8.3555 5.97268 8.1174 6.41814 7.76777 6.76777C7.41814 7.1174 6.97268 7.3555 6.48773 7.45196C6.00277 7.54843 5.50011 7.49892 5.04329 7.3097C4.58648 7.12048 4.19603 6.80005 3.92133 6.38893C3.64662 5.9778 3.5 5.49445 3.5 5C3.5 4.33696 3.76339 3.70107 4.23223 3.23223C4.70107 2.76339 5.33696 2.5 6 2.5ZM6 1.5C5.30777 1.5 4.63108 1.70527 4.0555 2.08986C3.47993 2.47444 3.03133 3.02107 2.76642 3.66061C2.50151 4.30015 2.4322 5.00388 2.56725 5.68282C2.7023 6.36175 3.03564 6.98539 3.52513 7.47487C4.01461 7.96436 4.63825 8.2977 5.31718 8.43275C5.99612 8.5678 6.69985 8.49849 7.33939 8.23358C7.97893 7.96867 8.52556 7.52007 8.91014 6.9445C9.29473 6.36892 9.5 5.69223 9.5 5C9.5 4.07174 9.13125 3.1815 8.47487 2.52513C7.8185 1.86875 6.92826 1.5 6 1.5ZM11 15.5H10V13C10 12.337 9.73661 11.7011 9.26777 11.2322C8.79893 10.7634 8.16304 10.5 7.5 10.5H4.5C3.83696 10.5 3.20107 10.7634 2.73223 11.2322C2.26339 11.7011 2 12.337 2 13V15.5H1V13C1 12.0717 1.36875 11.1815 2.02513 10.5251C2.6815 9.86875 3.57174 9.5 4.5 9.5H7.5C8.42826 9.5 9.3185 9.86875 9.97487 10.5251C10.6313 11.1815 11 12.0717 11 13V15.5ZM11 2.5H16V3.5H11V2.5ZM11 5H16V6H11V5ZM11 7.5H14.5V8.5H11V7.5Z" fill="#DB251A" fill-opacity="0.8"/>
</svg>
