<svg width="18" height="19" viewBox="0 0 18 19" fill="none" xmlns="http://www.w3.org/2000/svg">
<path d="M9 10.6123C10.0358 10.6123 10.9733 10.1923 11.652 9.51355C12.33 8.83555 12.75 7.89805 12.75 6.8623C12.75 5.82655 12.33 4.88905 11.652 4.21105C10.9733 3.5323 10.0358 3.1123 9 3.1123C7.96425 3.1123 7.02675 3.5323 6.348 4.21105C5.67 4.88905 5.25 5.82655 5.25 6.8623C5.25 7.89805 5.67 8.83555 6.348 9.51355C6.69586 9.86239 7.10923 10.139 7.56435 10.3276C8.01947 10.5162 8.50737 10.6129 9 10.6123ZM15 11.3623C15.2464 11.3628 15.4904 11.3146 15.7181 11.2206C15.9458 11.1265 16.1527 10.9884 16.3269 10.8142C16.5011 10.64 16.6392 10.4331 16.7333 10.2054C16.8273 9.97771 16.8755 9.73367 16.875 9.4873C16.875 8.9698 16.6658 8.50105 16.326 8.1613C16.1521 7.98694 15.9454 7.84867 15.7178 7.75446C15.4902 7.66024 15.2463 7.61193 15 7.6123C14.7536 7.61181 14.5096 7.65997 14.2819 7.75402C14.0542 7.84808 13.8473 7.98617 13.6731 8.16038C13.4989 8.33459 13.3608 8.54148 13.2667 8.76919C13.1727 8.9969 13.1245 9.24094 13.125 9.4873C13.1246 9.73364 13.1728 9.97764 13.2669 10.2053C13.361 10.433 13.4991 10.6398 13.6733 10.814C13.8475 10.9882 14.0543 11.1263 14.282 11.2204C14.5097 11.3145 14.7537 11.3627 15 11.3623ZM15 11.8048C14.0017 11.8048 13.251 12.1093 12.8123 12.5308C11.976 11.8431 10.6537 11.3623 9 11.3623C7.3005 11.3623 6.00375 11.8483 5.181 12.5353C4.734 12.1116 3.975 11.8048 3 11.8048C1.359 11.8048 0.375 12.6223 0.375 13.4413C0.375 13.8501 1.359 14.2603 3 14.2603C3.453 14.2603 3.8595 14.2221 4.21725 14.1606L4.18725 14.3631C4.18725 15.1131 5.99175 15.8631 9 15.8631C11.8215 15.8631 13.8127 15.1131 13.8127 14.3631L13.7977 14.1718C14.145 14.2266 14.544 14.2603 15 14.2603C16.5382 14.2603 17.625 13.8501 17.625 13.4413C17.625 12.6223 16.5952 11.8048 15 11.8048ZM3 11.3623C3.5175 11.3623 3.98625 11.1531 4.326 10.8133C4.50037 10.6394 4.63863 10.4327 4.73285 10.2051C4.82706 9.97754 4.87537 9.7336 4.875 9.4873C4.87549 9.24094 4.82733 8.9969 4.73328 8.76919C4.63923 8.54148 4.50114 8.33459 4.32693 8.16038C4.15272 7.98617 3.94582 7.84808 3.71812 7.75402C3.49041 7.65997 3.24637 7.61181 3 7.6123C2.75366 7.61191 2.50967 7.66014 2.282 7.75423C2.05434 7.84831 1.84748 7.98641 1.67329 8.1606C1.49911 8.33479 1.36101 8.54164 1.26692 8.76931C1.17283 8.99697 1.1246 9.24097 1.125 9.4873C1.12451 9.73367 1.17267 9.97771 1.26672 10.2054C1.36077 10.4331 1.49886 10.64 1.67307 10.8142C1.84728 10.9884 2.05418 11.1265 2.28188 11.2206C2.50959 11.3146 2.75363 11.3628 3 11.3623Z" fill="#969696"/>
</svg>
