<svg width="18" height="19" viewBox="0 0 18 19" fill="none" xmlns="http://www.w3.org/2000/svg">
<g clip-path="url(#clip0_5086_3882)">
<path fill-rule="evenodd" clip-rule="evenodd" d="M3.6002 1.9123C3.6002 1.43492 3.78984 0.977078 4.1274 0.639512C4.46497 0.301947 4.92281 0.112305 5.4002 0.112305L12.7814 0.112305L16.8002 2.7907V13.9123C16.8002 14.3897 16.6106 14.8475 16.273 15.1851C15.9354 15.5227 15.4776 15.7123 15.0002 15.7123H14.4002V16.3123C14.4002 16.7897 14.2106 17.2475 13.873 17.5851C13.5354 17.9227 13.0776 18.1123 12.6002 18.1123H3.0002C2.52281 18.1123 2.06497 17.9227 1.7274 17.5851C1.38984 17.2475 1.2002 16.7897 1.2002 16.3123V4.3123C1.2002 3.83492 1.38984 3.37708 1.7274 3.03951C2.06497 2.70195 2.52281 2.5123 3.0002 2.5123H3.6002V1.9123ZM3.6002 3.7123H3.0002C2.84107 3.7123 2.68845 3.77552 2.57593 3.88804C2.46341 4.00056 2.4002 4.15317 2.4002 4.3123V16.3123C2.4002 16.4714 2.46341 16.624 2.57593 16.7366C2.68845 16.8491 2.84107 16.9123 3.0002 16.9123H12.6002C12.7593 16.9123 12.9119 16.8491 13.0245 16.7366C13.137 16.624 13.2002 16.4714 13.2002 16.3123V15.7123H5.4002C4.92281 15.7123 4.46497 15.5227 4.1274 15.1851C3.78984 14.8475 3.6002 14.3897 3.6002 13.9123V3.7123Z" fill="#DB251A"/>
</g>
<defs>
<clipPath id="clip0_5086_3882">
<rect width="18" height="18" fill="white" transform="translate(0 0.112305)"/>
</clipPath>
</defs>
</svg>
