<svg width="16" height="16" viewBox="0 0 16 16" fill="none" xmlns="http://www.w3.org/2000/svg">
<g clip-path="url(#clip0_5073_940)">
<path d="M8.00017 14.6673C8.8758 14.6684 9.74303 14.4965 10.552 14.1614C11.361 13.8263 12.0958 13.3346 12.7142 12.7147C13.3341 12.0963 13.8258 11.3615 14.1609 10.5525C14.496 9.74351 14.6679 8.87629 14.6668 8.00066C14.6679 7.12502 14.496 6.2578 14.1609 5.44882C13.8258 4.63984 13.3341 3.90505 12.7142 3.28666C12.0958 2.66671 11.361 2.17506 10.552 1.83996C9.74303 1.50486 8.8758 1.33291 8.00017 1.33399C7.12453 1.33291 6.25731 1.50486 5.44833 1.83996C4.63935 2.17506 3.90456 2.66671 3.28617 3.28666C2.66622 3.90505 2.17457 4.63984 1.83947 5.44882C1.50437 6.2578 1.33242 7.12502 1.3335 8.00066C1.33242 8.87629 1.50437 9.74351 1.83947 10.5525C2.17457 11.3615 2.66622 12.0963 3.28617 12.7147C3.90456 13.3346 4.63935 13.8263 5.44833 14.1614C6.25731 14.4965 7.12453 14.6684 8.00017 14.6673Z" stroke="#DB251A" stroke-width="1.33333" stroke-linejoin="round"/>
<path d="M5.3335 8L7.3335 10L11.3335 6" stroke="#DB251A" stroke-width="1.33333" stroke-linecap="round" stroke-linejoin="round"/>
</g>
<defs>
<clipPath id="clip0_5073_940">
<rect width="16" height="16" fill="white"/>
</clipPath>
</defs>
</svg>
