<svg width="44" height="44" viewBox="0 0 44 44" fill="none" xmlns="http://www.w3.org/2000/svg">
<g filter="url(#filter0_d_3201_9151)">
<rect x="6" y="2.5" width="32" height="32" rx="4" fill="#DB251A"/>
</g>
<g clip-path="url(#clip0_3201_9151)">
<path d="M22 20.2776C22.9821 20.2776 23.871 19.8794 24.5145 19.2358C25.1574 18.593 25.5556 17.7041 25.5556 16.7221C25.5556 15.74 25.1574 14.8511 24.5145 14.2083C23.871 13.5647 22.9821 13.1665 22 13.1665C21.018 13.1665 20.1291 13.5647 19.4856 14.2083C18.8427 14.8511 18.4445 15.74 18.4445 16.7221C18.4445 17.7041 18.8427 18.593 19.4856 19.2358C19.8154 19.5666 20.2073 19.8289 20.6388 20.0077C21.0704 20.1865 21.533 20.2782 22 20.2776ZM27.6889 20.9887C27.9225 20.9892 28.1539 20.9435 28.3698 20.8544C28.5857 20.7652 28.7819 20.6342 28.9471 20.4691C29.1122 20.3039 29.2432 20.1077 29.3323 19.8918C29.4215 19.6759 29.4672 19.4445 29.4667 19.2109C29.4667 18.7203 29.2683 18.2758 28.9462 17.9537C28.7812 17.7884 28.5853 17.6573 28.3695 17.568C28.1537 17.4786 27.9225 17.4328 27.6889 17.4332C27.4553 17.4327 27.224 17.4784 27.0081 17.5675C26.7922 17.6567 26.596 17.7876 26.4308 17.9528C26.2656 18.118 26.1347 18.3142 26.0455 18.5301C25.9563 18.746 25.9107 18.9774 25.9112 19.2109C25.9108 19.4445 25.9565 19.6759 26.0457 19.8917C26.1349 20.1076 26.2659 20.3037 26.431 20.4689C26.5962 20.634 26.7923 20.765 27.0082 20.8542C27.224 20.9434 27.4554 20.9891 27.6889 20.9887ZM27.6889 21.4083C26.7424 21.4083 26.0306 21.697 25.6146 22.0966C24.8217 21.4445 23.568 20.9887 22 20.9887C20.3887 20.9887 19.1592 21.4495 18.3791 22.1009C17.9552 21.6991 17.2356 21.4083 16.3112 21.4083C14.7552 21.4083 13.8223 22.1834 13.8223 22.9599C13.8223 23.3475 14.7552 23.7365 16.3112 23.7365C16.7407 23.7365 17.1261 23.7002 17.4653 23.6419L17.4368 23.8339C17.4368 24.545 19.1478 25.2561 22 25.2561C24.6752 25.2561 26.5632 24.545 26.5632 23.8339L26.549 23.6525C26.8783 23.7045 27.2566 23.7365 27.6889 23.7365C29.1474 23.7365 30.1778 23.3475 30.1778 22.9599C30.1778 22.1834 29.2015 21.4083 27.6889 21.4083ZM16.3112 20.9887C16.8018 20.9887 17.2463 20.7903 17.5684 20.4682C17.7337 20.3033 17.8648 20.1073 17.9541 19.8915C18.0435 19.6758 18.0893 19.4445 18.0889 19.2109C18.0894 18.9774 18.0437 18.746 17.9546 18.5301C17.8654 18.3142 17.7345 18.118 17.5693 17.9528C17.4041 17.7876 17.2079 17.6567 16.992 17.5675C16.7761 17.4784 16.5447 17.4327 16.3112 17.4332C16.0776 17.4328 15.8462 17.4785 15.6304 17.5677C15.4145 17.6569 15.2184 17.7879 15.0532 17.953C14.8881 18.1182 14.7571 18.3143 14.6679 18.5302C14.5787 18.746 14.533 18.9774 14.5334 19.2109C14.5329 19.4445 14.5786 19.6759 14.6677 19.8918C14.7569 20.1077 14.8879 20.3039 15.053 20.4691C15.2182 20.6342 15.4144 20.7652 15.6303 20.8544C15.8462 20.9435 16.0776 20.9892 16.3112 20.9887Z" fill="white"/>
</g>
<defs>
<filter id="filter0_d_3201_9151" x="0.5" y="0.5" width="43" height="43" filterUnits="userSpaceOnUse" color-interpolation-filters="sRGB">
<feFlood flood-opacity="0" result="BackgroundImageFix"/>
<feColorMatrix in="SourceAlpha" type="matrix" values="0 0 0 0 0 0 0 0 0 0 0 0 0 0 0 0 0 0 127 0" result="hardAlpha"/>
<feOffset dy="3.5"/>
<feGaussianBlur stdDeviation="2.75"/>
<feColorMatrix type="matrix" values="0 0 0 0 0 0 0 0 0 0 0 0 0 0 0 0 0 0 0.02 0"/>
<feBlend mode="normal" in2="BackgroundImageFix" result="effect1_dropShadow_3201_9151"/>
<feBlend mode="normal" in="SourceGraphic" in2="effect1_dropShadow_3201_9151" result="shape"/>
</filter>
<clipPath id="clip0_3201_9151">
<rect width="17.0667" height="17.0667" fill="white" transform="translate(13.4668 10.3223)"/>
</clipPath>
</defs>
</svg>
