<svg width="17" height="16" viewBox="0 0 17 16" fill="none" xmlns="http://www.w3.org/2000/svg">
<path d="M7.16652 13.8511C6.58643 13.7189 6.02922 13.5012 5.51319 13.2051M9.83319 2.14844C11.1586 2.45115 12.342 3.1949 13.1896 4.25791C14.0372 5.32092 14.4988 6.64021 14.4988 7.99977C14.4988 9.35934 14.0372 10.6786 13.1896 11.7416C12.342 12.8046 11.1586 13.5484 9.83319 13.8511M3.55252 11.3951C3.18925 10.8665 2.91308 10.2831 2.73452 9.6671M2.58252 6.99977C2.68919 6.36644 2.89452 5.76644 3.18252 5.21644L3.29519 5.0131M5.10452 3.05244C5.72865 2.62369 6.4283 2.31696 7.16652 2.14844" stroke="#DB251A" stroke-width="1.33333" stroke-linecap="round" stroke-linejoin="round"/>
</svg>
