<svg width="44" height="44" viewBox="0 0 44 44" fill="none" xmlns="http://www.w3.org/2000/svg">
<g filter="url(#filter0_d_3201_9200)">
<rect x="6" y="2.5" width="32" height="32" rx="4" fill="#DB251A"/>
</g>
<g clip-path="url(#clip0_3201_9200)">
<path d="M27.4 14.5H14.6C13.72 14.5 13 15.22 13 16.1V20.9C13 21.78 13.72 22.5 14.6 22.5H27.4C28.28 22.5 29 21.78 29 20.9V16.1C29 15.22 28.28 14.5 27.4 14.5ZM27.4 20.9H14.6V16.1H27.4V20.9ZM18.6 16.9H15.4V20.1H18.6V16.9ZM22.6 16.9H19.4V20.1H22.6V16.9Z" fill="white"/>
</g>
<defs>
<filter id="filter0_d_3201_9200" x="0.5" y="0.5" width="43" height="43" filterUnits="userSpaceOnUse" color-interpolation-filters="sRGB">
<feFlood flood-opacity="0" result="BackgroundImageFix"/>
<feColorMatrix in="SourceAlpha" type="matrix" values="0 0 0 0 0 0 0 0 0 0 0 0 0 0 0 0 0 0 127 0" result="hardAlpha"/>
<feOffset dy="3.5"/>
<feGaussianBlur stdDeviation="2.75"/>
<feColorMatrix type="matrix" values="0 0 0 0 0 0 0 0 0 0 0 0 0 0 0 0 0 0 0.02 0"/>
<feBlend mode="normal" in2="BackgroundImageFix" result="effect1_dropShadow_3201_9200"/>
<feBlend mode="normal" in="SourceGraphic" in2="effect1_dropShadow_3201_9200" result="shape"/>
</filter>
<clipPath id="clip0_3201_9200">
<rect width="16" height="16" fill="white" transform="translate(13 10.5)"/>
</clipPath>
</defs>
</svg>
