<svg width="44" height="44" viewBox="0 0 44 44" fill="none" xmlns="http://www.w3.org/2000/svg">
<g filter="url(#filter0_d_3211_3279)">
<rect x="6" y="2.5" width="32" height="32" rx="4" fill="#DB251A"/>
</g>
<g clip-path="url(#clip0_3211_3279)">
<path d="M21 10C21.7344 10 22.4427 10.0938 23.125 10.2812C23.8073 10.4688 24.4427 10.7396 25.0312 11.0938C25.6198 11.4479 26.1589 11.8646 26.6484 12.3438C27.138 12.8229 27.5573 13.362 27.9062 13.9609C28.2552 14.5599 28.5234 15.1979 28.7109 15.875C28.8984 16.5521 28.9948 17.2604 29 18C29 18.7344 28.9062 19.4427 28.7188 20.125C28.5312 20.8073 28.2604 21.4427 27.9062 22.0312C27.5521 22.6198 27.1354 23.1589 26.6562 23.6484C26.1771 24.138 25.638 24.5573 25.0391 24.9062C24.4401 25.2552 23.8021 25.5234 23.125 25.7109C22.4479 25.8984 21.7396 25.9948 21 26C20.2656 26 19.5573 25.9062 18.875 25.7188C18.1927 25.5312 17.5573 25.2604 16.9688 24.9062C16.3802 24.5521 15.8411 24.1354 15.3516 23.6562C14.862 23.1771 14.4427 22.638 14.0938 22.0391C13.7448 21.4401 13.4766 20.8021 13.2891 20.125C13.1016 19.4479 13.0052 18.7396 13 18C13 17.2656 13.0938 16.5573 13.2812 15.875C13.4688 15.1927 13.7396 14.5573 14.0938 13.9688C14.4479 13.3802 14.8646 12.8411 15.3438 12.3516C15.8229 11.862 16.362 11.4427 16.9609 11.0938C17.5599 10.7448 18.1979 10.4766 18.875 10.2891C19.5521 10.1016 20.2604 10.0052 21 10ZM25.7109 15.3516L24.6484 14.2891L19.5 19.4375L17.3516 17.2891L16.2891 18.3516L19.5 21.5625L25.7109 15.3516Z" fill="white"/>
</g>
<defs>
<filter id="filter0_d_3211_3279" x="0.5" y="0.5" width="43" height="43" filterUnits="userSpaceOnUse" color-interpolation-filters="sRGB">
<feFlood flood-opacity="0" result="BackgroundImageFix"/>
<feColorMatrix in="SourceAlpha" type="matrix" values="0 0 0 0 0 0 0 0 0 0 0 0 0 0 0 0 0 0 127 0" result="hardAlpha"/>
<feOffset dy="3.5"/>
<feGaussianBlur stdDeviation="2.75"/>
<feColorMatrix type="matrix" values="0 0 0 0 0 0 0 0 0 0 0 0 0 0 0 0 0 0 0.02 0"/>
<feBlend mode="normal" in2="BackgroundImageFix" result="effect1_dropShadow_3211_3279"/>
<feBlend mode="normal" in="SourceGraphic" in2="effect1_dropShadow_3211_3279" result="shape"/>
</filter>
<clipPath id="clip0_3211_3279">
<rect width="16" height="16" fill="white" transform="translate(13 10)"/>
</clipPath>
</defs>
</svg>
