<svg width="18" height="19" viewBox="0 0 18 19" fill="none" xmlns="http://www.w3.org/2000/svg">
<path fill-rule="evenodd" clip-rule="evenodd" d="M6.74994 2.52975C6.74991 2.35988 6.80755 2.19504 6.91341 2.0622C7.01928 1.92935 7.1671 1.83638 7.33269 1.7985C8.42995 1.54864 9.56941 1.54915 10.6664 1.8C10.8322 1.83773 10.9802 1.93064 11.0862 2.0635C11.1922 2.19636 11.2499 2.36128 11.2499 2.53125V3.9165C11.2499 4.04815 11.2846 4.17748 11.3504 4.29149C11.4163 4.40551 11.5109 4.50018 11.625 4.56601C11.739 4.63183 11.8683 4.66648 11.9999 4.66648C12.1316 4.66648 12.2609 4.63183 12.3749 4.566L13.5757 3.87225C13.723 3.78722 13.8948 3.75478 14.063 3.78027C14.2312 3.80575 14.3857 3.88764 14.5012 4.0125C15.2645 4.83839 15.8336 5.82442 16.1669 6.8985C16.2173 7.06094 16.2109 7.23566 16.1489 7.39401C16.0869 7.55236 15.973 7.68494 15.8257 7.77L14.6249 8.463C14.5109 8.52883 14.4163 8.62351 14.3504 8.73752C14.2846 8.85153 14.25 8.98086 14.25 9.1125C14.25 9.24415 14.2846 9.37347 14.3504 9.48748C14.4163 9.6015 14.5109 9.69617 14.6249 9.762L15.8249 10.4543C15.972 10.5393 16.0859 10.6717 16.1479 10.8299C16.2099 10.9881 16.2164 11.1627 16.1662 11.325C15.8351 12.4006 15.2661 13.3878 14.5012 14.2133C14.3856 14.338 14.231 14.4197 14.0629 14.4451C13.8947 14.4704 13.7229 14.4379 13.5757 14.3528L12.3749 13.659C12.2609 13.5932 12.1316 13.5585 11.9999 13.5585C11.8683 13.5585 11.739 13.5932 11.625 13.659C11.5109 13.7248 11.4163 13.8195 11.3504 13.9335C11.2846 14.0475 11.2499 14.1768 11.2499 14.3085V15.696C11.2498 15.8658 11.1919 16.0306 11.0859 16.1633C10.9799 16.296 10.832 16.3888 10.6664 16.4265C9.56918 16.6763 8.42973 16.6758 7.33269 16.425C7.1671 16.3871 7.01928 16.2942 6.91341 16.1613C6.80755 16.0285 6.74991 15.8636 6.74994 15.6938V14.3085C6.74994 14.1768 6.71528 14.0475 6.64945 13.9335C6.58363 13.8195 6.48895 13.7248 6.37493 13.659C6.26092 13.5932 6.13159 13.5585 5.99994 13.5585C5.86829 13.5585 5.73895 13.5932 5.62494 13.659L4.42419 14.3528C4.27688 14.4378 4.10505 14.4702 3.93688 14.4447C3.76871 14.4192 3.61419 14.3374 3.49869 14.2125C3.11818 13.8009 2.78486 13.3481 2.50494 12.8625C2.2244 12.3771 1.999 11.8619 1.83294 11.3265C1.78259 11.1641 1.78894 10.9893 1.85095 10.831C1.91295 10.6726 2.02693 10.5401 2.17419 10.455L3.37419 9.762C3.4882 9.69617 3.58287 9.6015 3.64869 9.48748C3.71451 9.37347 3.74916 9.24415 3.74916 9.1125C3.74916 8.98086 3.71451 8.85153 3.64869 8.73752C3.58287 8.62351 3.4882 8.52883 3.37419 8.463L2.17569 7.77075C2.02846 7.68584 1.91443 7.55343 1.85229 7.39523C1.79016 7.23703 1.7836 7.06242 1.83369 6.9C2.16484 5.82469 2.73393 4.83778 3.49869 4.0125C3.61415 3.88782 3.76852 3.80604 3.93653 3.78056C4.10453 3.75508 4.27621 3.78741 4.42344 3.87225L5.62494 4.566C5.73895 4.63183 5.86829 4.66648 5.99994 4.66648C6.13159 4.66648 6.26092 4.63183 6.37493 4.56601C6.48895 4.50018 6.58363 4.40551 6.64945 4.29149C6.71528 4.17748 6.74994 4.04815 6.74994 3.9165V2.52975ZM8.99994 11.3625C9.59668 11.3625 10.169 11.1254 10.5909 10.7035C11.0129 10.2815 11.2499 9.70924 11.2499 9.1125C11.2499 8.51576 11.0129 7.94347 10.5909 7.52151C10.169 7.09955 9.59668 6.8625 8.99994 6.8625C8.4032 6.8625 7.83091 7.09955 7.40895 7.52151C6.98699 7.94347 6.74994 8.51576 6.74994 9.1125C6.74994 9.70924 6.98699 10.2815 7.40895 10.7035C7.83091 11.1254 8.4032 11.3625 8.99994 11.3625Z" fill="#969696"/>
</svg>
