<svg width="16" height="17" viewBox="0 0 16 17" fill="none" xmlns="http://www.w3.org/2000/svg">
<path fill-rule="evenodd" clip-rule="evenodd" d="M11.3335 2.5C11.8436 2.49997 12.3345 2.69488 12.7057 3.04486C13.0768 3.39483 13.3002 3.8734 13.3302 4.38267L13.3335 4.5V7.4L13.7295 7.224C14.1388 7.042 14.6108 7.324 14.6628 7.756L14.6668 7.83333V13.1667C14.6669 13.5031 14.5399 13.827 14.3112 14.0737C14.0824 14.3204 13.7689 14.4714 13.4335 14.4967L13.3335 14.5H2.66683C2.33045 14.5001 2.00645 14.3731 1.7598 14.1443C1.51314 13.9156 1.36206 13.6021 1.33683 13.2667L1.3335 13.1667V7.83333C1.3335 7.38533 1.7835 7.06867 2.19816 7.19667L2.2715 7.224L2.66683 7.4V4.5C2.6668 3.98986 2.86171 3.49899 3.21169 3.12783C3.56166 2.75666 4.04023 2.53326 4.5495 2.50333L4.66683 2.5H11.3335ZM13.3335 8.85933L8.5415 10.9887C8.37107 11.0644 8.18665 11.1035 8.00016 11.1035C7.81367 11.1035 7.62926 11.0644 7.45883 10.9887L2.66683 8.86V13.1667H13.3335V8.85933ZM11.3335 3.83333H4.66683C4.49002 3.83333 4.32045 3.90357 4.19543 4.0286C4.0704 4.15362 4.00016 4.32319 4.00016 4.5V7.99267L8.00016 9.77067L12.0002 7.99267V4.5C12.0002 4.32319 11.9299 4.15362 11.8049 4.0286C11.6799 3.90357 11.5103 3.83333 11.3335 3.83333ZM8.00016 5.83333C8.17008 5.83352 8.33352 5.89859 8.45708 6.01523C8.58063 6.13188 8.65499 6.2913 8.66494 6.46093C8.6749 6.63056 8.61971 6.79759 8.51065 6.92789C8.40159 7.05819 8.24689 7.14193 8.07816 7.162L8.00016 7.16667H6.66683C6.49691 7.16648 6.33347 7.10141 6.20992 6.98477C6.08636 6.86812 6.01201 6.7087 6.00205 6.53907C5.99209 6.36944 6.04728 6.20241 6.15634 6.07211C6.2654 5.94181 6.4201 5.85807 6.58883 5.838L6.66683 5.83333H8.00016Z" fill="#DB251A" fill-opacity="0.8"/>
</svg>
