<svg width="16" height="16" viewBox="0 0 16 16" fill="none" xmlns="http://www.w3.org/2000/svg">
<g clip-path="url(#clip0_4739_847)">
<path d="M13.281 6.42664L13.899 5.80864C14.3906 5.31702 14.6668 4.65024 14.6668 3.95498C14.6668 3.25972 14.3906 2.59293 13.899 2.10131C13.4074 1.60969 12.7406 1.3335 12.0453 1.3335C11.3501 1.3335 10.6833 1.60969 10.1917 2.10131L9.57367 2.71931L3.89234 8.39931C3.50767 8.78464 3.315 8.97731 3.14967 9.18931C2.95441 9.43949 2.78698 9.7102 2.65034 9.99664C2.535 10.2393 2.449 10.498 2.277 11.014L1.54767 13.2013M13.281 6.42664C13.281 6.42664 11.9683 6.34931 10.8097 5.19064C9.65101 4.03264 9.57434 2.71931 9.57434 2.71931M13.281 6.42664L7.60034 12.1066C7.21567 12.4913 7.023 12.684 6.811 12.8493C6.56083 13.0446 6.29012 13.212 6.00367 13.3486C5.76101 13.464 5.50301 13.55 4.98634 13.722L2.799 14.4513M2.799 14.4513L2.26434 14.63C2.13971 14.6718 2.00589 14.678 1.87793 14.6479C1.74997 14.6178 1.63294 14.5526 1.53999 14.4597C1.44704 14.3667 1.38185 14.2497 1.35177 14.1217C1.32168 13.9938 1.32788 13.8599 1.36967 13.7353L1.54834 13.2006L2.799 14.4513Z" stroke="#969696"/>
</g>
<defs>
<clipPath id="clip0_4739_847">
<rect width="16" height="16" fill="white"/>
</clipPath>
</defs>
</svg>
