<svg width="20" height="20" viewBox="0 0 20 20" fill="none" xmlns="http://www.w3.org/2000/svg">
<path d="M16.4587 5.41699C16.2929 5.41699 16.1339 5.35114 16.0167 5.23393C15.8995 5.11672 15.8337 4.95775 15.8337 4.79199V4.16699H15.2087C15.0429 4.16699 14.8839 4.10114 14.7667 3.98393C14.6495 3.86672 14.5837 3.70775 14.5837 3.54199C14.5837 3.37623 14.6495 3.21726 14.7667 3.10005C14.8839 2.98284 15.0429 2.91699 15.2087 2.91699H15.8337V2.29199C15.8337 2.12623 15.8995 1.96726 16.0167 1.85005C16.1339 1.73284 16.2929 1.66699 16.4587 1.66699C16.6244 1.66699 16.7834 1.73284 16.9006 1.85005C17.0178 1.96726 17.0837 2.12623 17.0837 2.29199V2.91699H17.7087C17.8744 2.91699 18.0334 2.98284 18.1506 3.10005C18.2678 3.21726 18.3337 3.37623 18.3337 3.54199C18.3337 3.70775 18.2678 3.86672 18.1506 3.98393C18.0334 4.10114 17.8744 4.16699 17.7087 4.16699H17.0837V4.79199C17.0837 4.95775 17.0178 5.11672 16.9006 5.23393C16.7834 5.35114 16.6244 5.41699 16.4587 5.41699ZM7.33283 3.10699C7.34443 3.04958 7.37354 2.99718 7.41616 2.95699C7.45449 2.92366 7.48449 2.91699 7.50116 2.91699C7.51783 2.91699 7.54783 2.92283 7.58616 2.95783C7.62848 2.99757 7.65757 3.04935 7.66949 3.10616C7.88267 4.14741 8.39432 5.1041 9.14199 5.85949C9.89658 6.60781 10.8532 7.11958 11.8945 7.33199C11.9528 7.34366 12.007 7.37616 12.0428 7.41533C12.0778 7.45366 12.0837 7.48366 12.0837 7.50033C12.0837 7.51699 12.0778 7.54699 12.0428 7.58533C12.0031 7.62764 11.9513 7.65673 11.8945 7.66866C10.8533 7.88177 9.89677 8.39376 9.14199 9.14199C8.39451 9.89675 7.88312 10.8529 7.67033 11.8937C7.65849 11.9512 7.62908 12.0036 7.58616 12.0437C7.54783 12.077 7.51783 12.0837 7.50116 12.0837C7.48449 12.0837 7.45449 12.0778 7.41616 12.0428C7.37384 12.0031 7.34475 11.9513 7.33283 11.8945C7.11965 10.8532 6.608 9.89656 5.86033 9.14116C5.10574 8.39284 4.14911 7.88107 3.10783 7.66866C3.05071 7.65689 2.99862 7.62779 2.95866 7.58533C2.92533 7.54616 2.91866 7.51699 2.91783 7.50033C2.91783 7.48366 2.92449 7.45366 2.95866 7.41616C2.99862 7.37293 3.05104 7.34322 3.10866 7.33116C4.14938 7.11837 5.10557 6.60697 5.86033 5.85949C6.60825 5.10461 7.11995 4.14811 7.33283 3.10699ZM7.50033 1.66699C6.76449 1.66699 6.23366 2.24616 6.10866 2.85199C5.94519 3.65485 5.55137 4.39269 4.97533 4.97533C4.39314 5.55109 3.65592 5.94489 2.85366 6.10866C2.24699 6.23366 1.66699 6.76533 1.66783 7.50283C1.66949 8.23783 2.24866 8.76699 2.85366 8.89283C3.65619 9.05552 4.39383 9.44881 4.97616 10.0245C5.70116 10.7503 5.99283 11.5912 6.10866 12.1487C6.23366 12.7545 6.76533 13.3337 7.50033 13.3337C8.23783 13.3337 8.76783 12.7545 8.89366 12.1478C9.05696 11.3458 9.45017 10.6086 10.0253 10.0262C10.608 9.45012 11.3458 9.05629 12.1487 8.89283C12.7545 8.76783 13.3337 8.23699 13.3337 7.50116C13.3337 6.76366 12.7545 6.23366 12.1478 6.10783C11.3455 5.94475 10.6082 5.55117 10.0262 4.97533C9.45042 4.39258 9.05689 3.65475 8.89366 2.85199C8.76783 2.24616 8.23783 1.66699 7.50199 1.66699M7.91699 14.1287V15.6253C7.91699 16.4303 8.57033 17.0837 9.37533 17.0837H15.6253C16.0121 17.0837 16.383 16.93 16.6565 16.6565C16.93 16.383 17.0837 16.0121 17.0837 15.6253V9.37533C17.0837 8.98855 16.93 8.61762 16.6565 8.34413C16.383 8.07064 16.0121 7.91699 15.6253 7.91699H14.1287C14.2065 7.49691 14.1632 7.06334 14.0037 6.66699H15.6253C16.3436 6.66699 17.0325 6.95233 17.5404 7.46025C18.0483 7.96816 18.3337 8.65703 18.3337 9.37533V15.6253C18.3337 15.981 18.2636 16.3332 18.1275 16.6618C17.9914 16.9904 17.7919 17.2889 17.5404 17.5404C17.2889 17.7919 16.9904 17.9914 16.6618 18.1275C16.3332 18.2636 15.981 18.3337 15.6253 18.3337H9.37533C9.01966 18.3337 8.66748 18.2636 8.33889 18.1275C8.0103 17.9914 7.71174 17.7919 7.46025 17.5404C7.20875 17.2889 7.00926 16.9904 6.87315 16.6618C6.73705 16.3332 6.66699 15.981 6.66699 15.6253V14.0037C7.06334 14.1632 7.49691 14.2065 7.91699 14.1287ZM10.0003 11.4587C10.0003 11.2929 10.0662 11.1339 10.1834 11.0167C10.3006 10.8995 10.4596 10.8337 10.6253 10.8337H15.2087C15.3744 10.8337 15.5334 10.8995 15.6506 11.0167C15.7678 11.1339 15.8337 11.2929 15.8337 11.4587C15.8337 11.6244 15.7678 11.7834 15.6506 11.9006C15.5334 12.0178 15.3744 12.0837 15.2087 12.0837H10.6253C10.4596 12.0837 10.3006 12.0178 10.1834 11.9006C10.0662 11.7834 10.0003 11.6244 10.0003 11.4587ZM10.6253 13.3337C10.4596 13.3337 10.3006 13.3995 10.1834 13.5167C10.0662 13.6339 10.0003 13.7929 10.0003 13.9587C10.0003 14.1244 10.0662 14.2834 10.1834 14.4006C10.3006 14.5178 10.4596 14.5837 10.6253 14.5837H13.542C13.7078 14.5837 13.8667 14.5178 13.9839 14.4006C14.1011 14.2834 14.167 14.1244 14.167 13.9587C14.167 13.7929 14.1011 13.6339 13.9839 13.5167C13.8667 13.3995 13.7078 13.3337 13.542 13.3337H10.6253ZM2.29199 15.8337C2.12623 15.8337 1.96726 15.8995 1.85005 16.0167C1.73284 16.1339 1.66699 16.2929 1.66699 16.4587C1.66699 16.6244 1.73284 16.7834 1.85005 16.9006C1.96726 17.0178 2.12623 17.0837 2.29199 17.0837H2.91699V17.7087C2.91699 17.8744 2.98284 18.0334 3.10005 18.1506C3.21726 18.2678 3.37623 18.3337 3.54199 18.3337C3.70775 18.3337 3.86672 18.2678 3.98393 18.1506C4.10114 18.0334 4.16699 17.8744 4.16699 17.7087V17.0837H4.79199C4.95775 17.0837 5.11672 17.0178 5.23393 16.9006C5.35114 16.7834 5.41699 16.6244 5.41699 16.4587C5.41699 16.2929 5.35114 16.1339 5.23393 16.0167C5.11672 15.8995 4.95775 15.8337 4.79199 15.8337H4.16699V15.2087C4.16699 15.0429 4.10114 14.8839 3.98393 14.7667C3.86672 14.6495 3.70775 14.5837 3.54199 14.5837C3.37623 14.5837 3.21726 14.6495 3.10005 14.7667C2.98284 14.8839 2.91699 15.0429 2.91699 15.2087V15.8337H2.29199Z" fill="#DB251A"/>
</svg>
