<svg width="16" height="17" viewBox="0 0 16 17" fill="none" xmlns="http://www.w3.org/2000/svg">
<g clip-path="url(#clip0_3202_10767)">
<path d="M8 0.439453C8.73438 0.439453 9.44271 0.533203 10.125 0.720703C10.8073 0.908203 11.4427 1.17904 12.0312 1.5332C12.6198 1.88737 13.1589 2.30404 13.6484 2.7832C14.138 3.26237 14.5573 3.80143 14.9062 4.40039C15.2552 4.99935 15.5234 5.63737 15.7109 6.31445C15.8984 6.99154 15.9948 7.69987 16 8.43945C16 9.17383 15.9062 9.88216 15.7188 10.5645C15.5312 11.2467 15.2604 11.8822 14.9062 12.4707C14.5521 13.0592 14.1354 13.5983 13.6562 14.0879C13.1771 14.5775 12.638 14.9967 12.0391 15.3457C11.4401 15.6947 10.8021 15.9629 10.125 16.1504C9.44792 16.3379 8.73958 16.4342 8 16.4395C7.26562 16.4395 6.55729 16.3457 5.875 16.1582C5.19271 15.9707 4.55729 15.6999 3.96875 15.3457C3.38021 14.9915 2.84115 14.5749 2.35156 14.0957C1.86198 13.6165 1.44271 13.0775 1.09375 12.4785C0.744792 11.8796 0.476562 11.2415 0.289062 10.5645C0.101562 9.88737 0.00520833 9.17904 0 8.43945C0 7.70508 0.09375 6.99674 0.28125 6.31445C0.46875 5.63216 0.739583 4.99674 1.09375 4.4082C1.44792 3.81966 1.86458 3.2806 2.34375 2.79102C2.82292 2.30143 3.36198 1.88216 3.96094 1.5332C4.5599 1.18424 5.19792 0.916016 5.875 0.728516C6.55208 0.541016 7.26042 0.444661 8 0.439453ZM12.7109 5.79102L11.6484 4.72852L6.5 9.87695L4.35156 7.72852L3.28906 8.79102L6.5 12.002L12.7109 5.79102Z" fill="#DB251A"/>
</g>
<defs>
<clipPath id="clip0_3202_10767">
<rect width="16" height="16" fill="white" transform="translate(0 0.439453)"/>
</clipPath>
</defs>
</svg>
