<svg width="44" height="49" viewBox="0 0 44 49" fill="none" xmlns="http://www.w3.org/2000/svg">
<rect y="0.166016" width="44" height="48.668" rx="22" fill="#DB251A" fill-opacity="0.12"/>
<path d="M15.8333 21.418V18.3327C15.8333 16.6972 16.483 15.1287 17.6395 13.9722C18.796 12.8157 20.3645 12.166 22 12.166C23.6355 12.166 25.204 12.8157 26.3605 13.9722C27.517 15.1287 28.1667 16.6972 28.1667 18.3327V21.4167M17.3747 32.2087H26.6253M28.6667 21.418H15.3333C13.4933 21.418 12 22.798 12 24.5007V33.7513C12 35.454 13.4933 36.834 15.3333 36.834H28.6667C30.5067 36.834 32 35.454 32 33.7513V24.5007C32 22.798 30.5067 21.418 28.6667 21.418Z" stroke="#DB251A" stroke-width="2" stroke-linecap="round" stroke-linejoin="round"/>
</svg>
