<svg width="40" height="40" viewBox="0 0 40 40" fill="none" xmlns="http://www.w3.org/2000/svg">
<g clip-path="url(#clip0_6824_25286)">
<path d="M40 20.0023V19.9923C40 14.0739 37.4233 8.75894 33.3317 5.10394L33.3117 5.08727C33.2611 5.03284 33.2047 4.9842 33.1433 4.94227L33.14 4.94061C29.5058 1.75022 24.8326 -0.00502349 19.9967 0.00394041C14.9433 0.00394041 10.33 1.88061 6.81334 4.97727L6.83501 4.95894C6.79275 4.99125 6.75368 5.02752 6.71834 5.06727C4.6043 6.93933 2.91213 9.24084 1.75391 11.8162C0.595696 14.3915 -0.00213898 17.1835 5.75023e-06 20.0073C5.75023e-06 25.9239 2.57334 31.2389 6.66167 34.8956L6.68167 34.9123C6.73486 34.9721 6.79406 35.0262 6.85834 35.0739L6.86167 35.0756C10.4947 38.2617 15.1645 40.0144 19.9967 40.0056C24.8514 40.0131 29.5412 38.2441 33.1817 35.0323L33.16 35.0506C35.3108 33.1807 37.0348 30.8706 38.2154 28.2767C39.3961 25.6828 40.0058 22.8656 40.0033 20.0156V20.0039L40 20.0023ZM32.5633 33.0106C31.5722 32.2097 30.5068 31.5054 29.3817 30.9073L29.2733 30.8539C30.295 27.9089 30.91 24.5139 30.9683 20.9823V20.9556H38.07C37.8312 25.5248 35.8645 29.8323 32.5683 33.0056L32.5633 33.0106ZM20.9533 30.5023C23.0917 30.6173 25.09 31.0873 26.9333 31.8523L26.8133 31.8089C25.3367 35.1756 23.2583 37.4889 20.9533 37.9973V30.5023ZM20.9533 28.5956V20.9556H29.0667C29.0021 24.1194 28.4535 27.2546 27.44 30.2523L27.505 30.0339C25.4361 29.1823 23.2351 28.6962 21 28.5973L20.955 28.5956H20.9533ZM20.9533 19.0489V11.4089C23.2487 11.3045 25.5084 10.802 27.6317 9.92394L27.5 9.97227C28.425 12.6706 28.9933 15.7806 29.0667 19.0139V19.0489H20.9533ZM20.9533 9.50227V2.01061C23.2583 2.51894 25.3367 4.82227 26.8133 8.19894C25.09 8.91561 23.0917 9.38394 21.0017 9.50061L20.9533 9.50227ZM25.71 2.83561C27.6745 3.48941 29.5114 4.47723 31.14 5.75561L31.1017 5.72561C30.3633 6.30561 29.535 6.85227 28.6617 7.32727L28.5683 7.37394C27.8645 5.70753 26.894 4.16682 25.695 2.81227L25.71 2.83061V2.83561ZM19.0433 2.01561V9.50227C16.9875 9.39753 14.9648 8.94091 13.0633 8.15227L13.1833 8.19561C14.6667 4.82894 16.7417 2.51727 19.0467 2.00894L19.0433 2.01561ZM11.43 7.36894C10.5268 6.88248 9.66598 6.32107 8.85667 5.69061L8.89667 5.72061C10.4778 4.47969 12.2573 3.51498 14.16 2.86727L14.2867 2.82894C13.1202 4.14766 12.1701 5.64286 11.4717 7.25894L11.43 7.36894ZM19.0467 11.4073V19.0473H10.9333C11.0067 15.7789 11.575 12.6689 12.565 9.75227L12.5 9.97061C14.5689 10.8181 16.7682 11.3035 19.0017 11.4056L19.0467 11.4073ZM19.0467 20.9539V28.5939C16.7513 28.6984 14.4916 29.2008 12.3683 30.0789L12.5 30.0306C11.575 27.3339 11.0067 24.2223 10.9333 20.9889V20.9539H19.0467ZM19.0467 30.5006V37.9923C16.7417 37.4839 14.6633 35.1806 13.1867 31.8039C14.91 31.0873 16.9083 30.6206 18.9983 30.5039L19.0467 30.5006ZM14.2967 37.1673C12.334 36.5125 10.4976 35.5272 8.86667 34.2539L8.90667 34.2839C9.64501 33.7039 10.4733 33.1573 11.3467 32.6823L11.44 32.6356C12.1386 34.3024 13.109 35.8416 14.3117 37.1906L14.2967 37.1739V37.1673ZM28.57 32.6339C29.5367 33.1589 30.365 33.7039 31.1433 34.3123L31.1033 34.2823C29.5222 35.5232 27.7427 36.4879 25.84 37.1356L25.7133 37.1739C26.8796 35.8557 27.8297 34.3611 28.5283 32.7456L28.57 32.6373V32.6339ZM38.07 19.0489H30.9683C30.9162 15.6006 30.3211 12.182 29.205 8.91894L29.2733 9.14894C30.4506 8.52889 31.5652 7.79661 32.6017 6.96227L32.5617 6.99227C35.8522 10.1527 37.8199 14.4448 38.0667 19.0006L38.07 19.0489ZM7.43667 6.99394C8.39667 7.77394 9.47501 8.48894 10.6183 9.09727L10.7267 9.15061C9.705 12.0956 9.09001 15.4906 9.03167 19.0223V19.0489H1.92834C2.16717 14.4798 4.13386 10.1722 7.43001 6.99894L7.43667 6.99394ZM1.93001 20.9556H9.03167C9.08379 24.4039 9.67886 27.8225 10.795 31.0856L10.7267 30.8556C9.47501 31.5206 8.39834 32.2356 7.39834 33.0423L7.43834 33.0123C4.14777 29.8518 2.18014 25.5597 1.93334 21.0039L1.93167 20.9573L1.93001 20.9556Z" fill="#DB251A"/>
</g>
<defs>
<clipPath id="clip0_6824_25286">
<rect width="40" height="40" fill="white"/>
</clipPath>
</defs>
</svg>
