<svg width="18" height="19" viewBox="0 0 18 19" fill="none" xmlns="http://www.w3.org/2000/svg">
<path fill-rule="evenodd" clip-rule="evenodd" d="M6.75043 2.5296C6.7504 2.35973 6.80803 2.19489 6.9139 2.06204C7.01976 1.9292 7.16759 1.83623 7.33318 1.79835C8.43044 1.54848 9.56989 1.549 10.6669 1.79985C10.8327 1.83758 10.9807 1.93049 11.0867 2.06335C11.1927 2.1962 11.2504 2.36113 11.2504 2.5311V3.91635C11.2504 4.048 11.2851 4.17733 11.3509 4.29134C11.4167 4.40535 11.5114 4.50003 11.6254 4.56585C11.7395 4.63168 11.8688 4.66633 12.0004 4.66633C12.1321 4.66633 12.2614 4.63167 12.3754 4.56585L13.5762 3.8721C13.7235 3.78707 13.8953 3.75463 14.0635 3.78012C14.2317 3.8056 14.3862 3.88749 14.5017 4.01235C15.265 4.83824 15.8341 5.82427 16.1674 6.89835C16.2178 7.06078 16.2114 7.23551 16.1494 7.39386C16.0874 7.55221 15.9734 7.68479 15.8262 7.76985L14.6254 8.46285C14.5114 8.52868 14.4168 8.62335 14.3509 8.73737C14.2851 8.85138 14.2505 8.9807 14.2505 9.11235C14.2505 9.24399 14.2851 9.37332 14.3509 9.48733C14.4168 9.60134 14.5114 9.69602 14.6254 9.76185L15.8254 10.4541C15.9725 10.5391 16.0864 10.6716 16.1484 10.8298C16.2104 10.988 16.2168 11.1625 16.1667 11.3248C15.8356 12.4004 15.2665 13.3876 14.5017 14.2131C14.3861 14.3378 14.2315 14.4196 14.0634 14.4449C13.8952 14.4703 13.7234 14.4377 13.5762 14.3526L12.3754 13.6588C12.2614 13.593 12.1321 13.5584 12.0004 13.5584C11.8688 13.5584 11.7395 13.593 11.6254 13.6588C11.5114 13.7247 11.4167 13.8193 11.3509 13.9334C11.2851 14.0474 11.2504 14.1767 11.2504 14.3083V15.6958C11.2503 15.8657 11.1924 16.0304 11.0864 16.1631C10.9804 16.2958 10.8325 16.3886 10.6669 16.4263C9.56967 16.6762 8.43022 16.6757 7.33318 16.4248C7.16759 16.387 7.01976 16.294 6.9139 16.1612C6.80803 16.0283 6.7504 15.8635 6.75043 15.6936V14.3083C6.75043 14.1767 6.71577 14.0474 6.64994 13.9334C6.58411 13.8193 6.48944 13.7247 6.37542 13.6588C6.26141 13.593 6.13208 13.5584 6.00043 13.5584C5.86877 13.5584 5.73944 13.593 5.62543 13.6588L4.42468 14.3526C4.27737 14.4376 4.10553 14.4701 3.93736 14.4446C3.7692 14.4191 3.61468 14.3372 3.49918 14.2123C3.11866 13.8008 2.78534 13.348 2.50543 12.8623C2.22488 12.377 1.99948 11.8618 1.83343 11.3263C1.78308 11.1639 1.78943 10.9892 1.85143 10.8308C1.91344 10.6725 2.02742 10.5399 2.17468 10.4548L3.37468 9.76185C3.48869 9.69602 3.58336 9.60134 3.64918 9.48733C3.715 9.37332 3.74965 9.24399 3.74965 9.11235C3.74965 8.9807 3.715 8.85138 3.64918 8.73737C3.58336 8.62335 3.48869 8.52868 3.37468 8.46285L2.17618 7.7706C2.02894 7.68569 1.91492 7.55328 1.85278 7.39508C1.79064 7.23688 1.78409 7.06226 1.83418 6.89985C2.16533 5.82454 2.73441 4.83762 3.49918 4.01235C3.61464 3.88767 3.76901 3.80589 3.93701 3.78041C4.10502 3.75493 4.2767 3.78726 4.42393 3.8721L5.62543 4.56585C5.73944 4.63167 5.86877 4.66633 6.00043 4.66633C6.13208 4.66633 6.26141 4.63168 6.37542 4.56585C6.48944 4.50003 6.58411 4.40535 6.64994 4.29134C6.71577 4.17733 6.75043 4.048 6.75043 3.91635V2.5296ZM9.00043 11.3623C9.59717 11.3623 10.1695 11.1253 10.5914 10.7033C11.0134 10.2814 11.2504 9.70909 11.2504 9.11235C11.2504 8.51561 11.0134 7.94332 10.5914 7.52136C10.1695 7.0994 9.59717 6.86235 9.00043 6.86235C8.40369 6.86235 7.8314 7.0994 7.40944 7.52136C6.98748 7.94332 6.75043 8.51561 6.75043 9.11235C6.75043 9.70909 6.98748 10.2814 7.40944 10.7033C7.8314 11.1253 8.40369 11.3623 9.00043 11.3623Z" fill="#DB251A"/>
</svg>
