<svg width="18" height="19" viewBox="0 0 18 19" fill="none" xmlns="http://www.w3.org/2000/svg">
<path fill-rule="evenodd" clip-rule="evenodd" d="M6.74994 2.5296C6.74991 2.35973 6.80755 2.19489 6.91341 2.06204C7.01928 1.9292 7.1671 1.83623 7.33269 1.79835C8.42995 1.54848 9.56941 1.549 10.6664 1.79985C10.8322 1.83758 10.9802 1.93049 11.0862 2.06335C11.1922 2.1962 11.2499 2.36113 11.2499 2.5311V3.91635C11.2499 4.048 11.2846 4.17733 11.3504 4.29134C11.4163 4.40535 11.5109 4.50003 11.625 4.56585C11.739 4.63168 11.8683 4.66633 11.9999 4.66633C12.1316 4.66633 12.2609 4.63167 12.3749 4.56585L13.5757 3.8721C13.723 3.78707 13.8948 3.75463 14.063 3.78012C14.2312 3.8056 14.3857 3.88749 14.5012 4.01235C15.2645 4.83824 15.8336 5.82427 16.1669 6.89835C16.2173 7.06078 16.2109 7.23551 16.1489 7.39386C16.0869 7.55221 15.973 7.68479 15.8257 7.76985L14.6249 8.46285C14.5109 8.52868 14.4163 8.62335 14.3504 8.73737C14.2846 8.85138 14.25 8.9807 14.25 9.11235C14.25 9.24399 14.2846 9.37332 14.3504 9.48733C14.4163 9.60134 14.5109 9.69602 14.6249 9.76185L15.8249 10.4541C15.972 10.5391 16.0859 10.6716 16.1479 10.8298C16.2099 10.988 16.2164 11.1625 16.1662 11.3248C15.8351 12.4004 15.2661 13.3876 14.5012 14.2131C14.3856 14.3378 14.231 14.4196 14.0629 14.4449C13.8947 14.4703 13.7229 14.4377 13.5757 14.3526L12.3749 13.6588C12.2609 13.593 12.1316 13.5584 11.9999 13.5584C11.8683 13.5584 11.739 13.593 11.625 13.6588C11.5109 13.7247 11.4163 13.8193 11.3504 13.9334C11.2846 14.0474 11.2499 14.1767 11.2499 14.3083V15.6958C11.2498 15.8657 11.1919 16.0304 11.0859 16.1631C10.9799 16.2958 10.832 16.3886 10.6664 16.4263C9.56918 16.6762 8.42973 16.6757 7.33269 16.4248C7.1671 16.387 7.01928 16.294 6.91341 16.1612C6.80755 16.0283 6.74991 15.8635 6.74994 15.6936V14.3083C6.74994 14.1767 6.71528 14.0474 6.64945 13.9334C6.58363 13.8193 6.48895 13.7247 6.37493 13.6588C6.26092 13.593 6.13159 13.5584 5.99994 13.5584C5.86829 13.5584 5.73895 13.593 5.62494 13.6588L4.42419 14.3526C4.27688 14.4376 4.10505 14.4701 3.93688 14.4446C3.76871 14.4191 3.61419 14.3372 3.49869 14.2123C3.11818 13.8008 2.78486 13.348 2.50494 12.8623C2.2244 12.377 1.999 11.8618 1.83294 11.3263C1.78259 11.1639 1.78894 10.9892 1.85095 10.8308C1.91295 10.6725 2.02693 10.5399 2.17419 10.4548L3.37419 9.76185C3.4882 9.69602 3.58287 9.60134 3.64869 9.48733C3.71451 9.37332 3.74916 9.24399 3.74916 9.11235C3.74916 8.9807 3.71451 8.85138 3.64869 8.73737C3.58287 8.62335 3.4882 8.52868 3.37419 8.46285L2.17569 7.7706C2.02846 7.68569 1.91443 7.55328 1.85229 7.39508C1.79016 7.23688 1.7836 7.06226 1.83369 6.89985C2.16484 5.82454 2.73393 4.83762 3.49869 4.01235C3.61415 3.88767 3.76852 3.80589 3.93653 3.78041C4.10453 3.75493 4.27621 3.78726 4.42344 3.8721L5.62494 4.56585C5.73895 4.63167 5.86829 4.66633 5.99994 4.66633C6.13159 4.66633 6.26092 4.63168 6.37493 4.56585C6.48895 4.50003 6.58363 4.40535 6.64945 4.29134C6.71528 4.17733 6.74994 4.048 6.74994 3.91635V2.5296ZM8.99994 11.3623C9.59668 11.3623 10.169 11.1253 10.5909 10.7033C11.0129 10.2814 11.2499 9.70909 11.2499 9.11235C11.2499 8.51561 11.0129 7.94332 10.5909 7.52136C10.169 7.0994 9.59668 6.86235 8.99994 6.86235C8.4032 6.86235 7.83091 7.0994 7.40895 7.52136C6.98699 7.94332 6.74994 8.51561 6.74994 9.11235C6.74994 9.70909 6.98699 10.2814 7.40895 10.7033C7.83091 11.1253 8.4032 11.3623 8.99994 11.3623Z" fill="#969696"/>
</svg>
