<svg width="18" height="19" viewBox="0 0 18 19" fill="none" xmlns="http://www.w3.org/2000/svg">
<path d="M1.3125 7.6123V10.6123C1.3125 12.7341 1.3125 13.7946 1.97175 14.4538C2.1345 14.6166 2.322 14.7388 2.544 14.8318C2.53898 14.7983 2.53423 14.7648 2.52975 14.7313C2.4375 14.0428 2.4375 13.1841 2.4375 12.1866V6.0388C2.4375 5.0413 2.4375 4.1818 2.52975 3.49405L2.54475 3.39355C2.33044 3.48006 2.13561 3.60858 1.97175 3.77155C1.3125 4.4308 1.3125 5.4913 1.3125 7.6123ZM16.3125 7.6123V10.6123C16.3125 12.7341 16.3125 13.7946 15.6532 14.4538C15.4905 14.6166 15.303 14.7388 15.081 14.8318L15.0953 14.7313C15.1875 14.0428 15.1875 13.1841 15.1875 12.1866V6.0388C15.1875 5.0413 15.1875 4.1818 15.0953 3.49405C15.0905 3.46052 15.0855 3.42701 15.0802 3.39355C15.303 3.4858 15.4905 3.6088 15.6532 3.77155C16.3125 4.4308 16.3125 5.4913 16.3125 7.6123Z" fill="#969696"/>
<path fill-rule="evenodd" clip-rule="evenodd" d="M4.22175 2.27155C3.5625 2.93005 3.5625 3.9913 3.5625 6.1123V12.1123C3.5625 14.2333 3.5625 15.2946 4.22175 15.9531C4.88025 16.6123 5.9415 16.6123 8.0625 16.6123H9.5625C11.6835 16.6123 12.7448 16.6123 13.4032 15.9531C14.0625 15.2946 14.0625 14.2333 14.0625 12.1123V6.1123C14.0625 3.9913 14.0625 2.93005 13.4032 2.27155C12.7448 1.6123 11.6835 1.6123 9.5625 1.6123H8.0625C5.9415 1.6123 4.88025 1.6123 4.22175 2.27155ZM6 12.8623C6 12.7131 6.05926 12.57 6.16475 12.4646C6.27024 12.3591 6.41332 12.2998 6.5625 12.2998H8.8125C8.96168 12.2998 9.10476 12.3591 9.21025 12.4646C9.31574 12.57 9.375 12.7131 9.375 12.8623C9.375 13.0115 9.31574 13.1546 9.21025 13.2601C9.10476 13.3655 8.96168 13.4248 8.8125 13.4248H6.5625C6.41332 13.4248 6.27024 13.3655 6.16475 13.2601C6.05926 13.1546 6 13.0115 6 12.8623ZM6.5625 9.2998C6.41332 9.2998 6.27024 9.35907 6.16475 9.46456C6.05926 9.57005 6 9.71312 6 9.8623C6 10.0115 6.05926 10.1546 6.16475 10.2601C6.27024 10.3655 6.41332 10.4248 6.5625 10.4248H11.0625C11.2117 10.4248 11.3548 10.3655 11.4602 10.2601C11.5657 10.1546 11.625 10.0115 11.625 9.8623C11.625 9.71312 11.5657 9.57005 11.4602 9.46456C11.3548 9.35907 11.2117 9.2998 11.0625 9.2998H6.5625ZM6 6.8623C6 6.71312 6.05926 6.57005 6.16475 6.46456C6.27024 6.35907 6.41332 6.2998 6.5625 6.2998H11.0625C11.2117 6.2998 11.3548 6.35907 11.4602 6.46456C11.5657 6.57005 11.625 6.71312 11.625 6.8623C11.625 7.01149 11.5657 7.15456 11.4602 7.26005C11.3548 7.36554 11.2117 7.4248 11.0625 7.4248H6.5625C6.41332 7.4248 6.27024 7.36554 6.16475 7.26005C6.05926 7.15456 6 7.01149 6 6.8623Z" fill="#969696"/>
</svg>
