<svg width="16" height="16" viewBox="0 0 16 16" fill="none" xmlns="http://www.w3.org/2000/svg">
<g opacity="0.2">
<path fill-rule="evenodd" clip-rule="evenodd" d="M5.036 10.832H2.4C2.29391 10.832 2.19217 10.7898 2.11716 10.7148C2.04214 10.6398 2 10.5381 2 10.432V6.27199C2 6.1659 2.04214 6.06416 2.11716 5.98915C2.19217 5.91413 2.29391 5.87199 2.4 5.87199H5.12L8.5376 2.89839C8.5955 2.84807 8.66664 2.81546 8.74255 2.80444C8.81846 2.79342 8.89594 2.80447 8.96575 2.83625C9.03556 2.86804 9.09476 2.91923 9.1363 2.98372C9.17783 3.04821 9.19994 3.12328 9.2 3.19999V13.6C9.20006 13.6769 9.17792 13.7523 9.13625 13.8169C9.09458 13.8816 9.03514 13.9329 8.96506 13.9646C8.89498 13.9964 8.81722 14.0073 8.74112 13.9959C8.66502 13.9846 8.5938 13.9516 8.536 13.9008L5.036 10.832Z" fill="#DB251A"/>
<path d="M10.9215 11.0063C10.8422 11.077 10.7496 11.1313 10.6491 11.1659C10.5486 11.2004 10.4422 11.2146 10.3362 11.2076C10.2301 11.2006 10.1265 11.1726 10.0314 11.1251C9.93635 11.0776 9.85168 11.0116 9.78237 10.9311C9.71306 10.8505 9.6605 10.7569 9.62776 10.6558C9.59503 10.5547 9.58276 10.448 9.5917 10.3421C9.60063 10.2362 9.63058 10.1332 9.67979 10.039C9.729 9.94475 9.79649 9.8613 9.87832 9.79347C9.90142 9.77345 9.92358 9.75236 9.94472 9.73027C10.0391 9.63187 10.1263 9.50547 10.1975 9.35427C10.3343 9.05487 10.4034 8.72901 10.3999 8.39987C10.3999 7.84627 10.2183 7.35347 9.94472 7.06947C9.92359 7.04737 9.90143 7.02628 9.87832 7.00627C9.7219 6.86668 9.62652 6.67127 9.61271 6.46208C9.5989 6.25289 9.66776 6.04663 9.80447 5.88769C9.94118 5.72875 10.1348 5.62983 10.3437 5.61221C10.5526 5.59459 10.7601 5.65968 10.9215 5.79347C10.9815 5.84547 11.0399 5.90067 11.0967 5.95827C11.6711 6.55427 11.9999 7.44787 11.9999 8.39987C11.9999 8.98547 11.8759 9.55187 11.6423 10.0423C11.4983 10.3447 11.3143 10.6151 11.0967 10.8415C11.0407 10.8991 10.9815 10.9551 10.9207 11.0063" fill="#DB251A"/>
<path d="M11.6391 13.4686C11.5513 13.5283 11.4525 13.5698 11.3485 13.5909C11.2445 13.6119 11.1373 13.6121 11.0332 13.5914C10.9291 13.5706 10.8302 13.5293 10.7423 13.47C10.6543 13.4106 10.579 13.3344 10.5208 13.2457C10.4625 13.1569 10.4226 13.0575 10.4032 12.9532C10.3837 12.8488 10.3853 12.7417 10.4077 12.6379C10.4301 12.5342 10.4729 12.436 10.5336 12.3489C10.5944 12.2619 10.6718 12.1878 10.7615 12.131C11.2606 11.803 11.6913 11.381 12.0295 10.8886C12.2792 10.5232 12.4731 10.1225 12.6047 9.69983C12.7791 9.13745 12.8382 8.54561 12.7783 7.95983C12.7053 7.22495 12.4478 6.52044 12.0295 5.91183C11.7778 5.54234 11.4726 5.21233 11.1239 4.93263C11.0074 4.83881 10.8865 4.75071 10.7615 4.66863C10.6718 4.61183 10.5944 4.53776 10.5336 4.45074C10.4729 4.36371 10.4301 4.26547 10.4077 4.16174C10.3853 4.058 10.3837 3.95085 10.4032 3.84651C10.4226 3.74218 10.4625 3.64275 10.5208 3.55402C10.579 3.46528 10.6543 3.38902 10.7423 3.32967C10.8302 3.27032 10.9291 3.22907 11.0332 3.20832C11.1373 3.18756 11.2445 3.18773 11.3485 3.20879C11.4525 3.22986 11.5513 3.27142 11.6391 3.33103C12.1441 3.66302 12.5982 4.06671 12.9871 4.52943C13.3745 4.99135 13.6913 5.50817 13.9271 6.06303C14.2403 6.80229 14.4016 7.59697 14.4016 8.39983C14.4016 9.2027 14.2403 9.99737 13.9271 10.7366C13.6922 11.292 13.3754 11.8089 12.9871 12.2702C12.5989 12.7339 12.1452 13.1377 11.6391 13.4686Z" fill="#DB251A"/>
</g>
<path fill-rule="evenodd" clip-rule="evenodd" d="M7.7378 1.69851L4.3194 4.67211H1.6002C1.49411 4.67211 1.39237 4.71425 1.31735 4.78926C1.24234 4.86428 1.2002 4.96602 1.2002 5.07211V9.23211C1.2002 9.33819 1.24234 9.43993 1.31735 9.51495C1.39237 9.58996 1.49411 9.63211 1.6002 9.63211H4.2362L7.7362 12.7001C7.794 12.7509 7.86522 12.7839 7.94132 12.7952C8.01742 12.8066 8.09517 12.7957 8.16525 12.764C8.23534 12.7322 8.29478 12.6809 8.33645 12.6162C8.37812 12.5516 8.40025 12.4762 8.4002 12.3993V1.99931C8.40014 1.9226 8.37802 1.84753 8.33649 1.78303C8.29496 1.71854 8.23576 1.66735 8.16595 1.63557C8.09614 1.60378 8.01866 1.59274 7.94275 1.60376C7.86683 1.61477 7.79569 1.64819 7.7378 1.69851ZM4.7074 5.39611L7.6002 2.87851V11.5177L4.8114 9.07211C4.78028 9.0008 4.72904 8.94012 4.66396 8.8975C4.59889 8.85487 4.52279 8.83215 4.445 8.83211H2.0002V5.47211H4.3154C4.38164 5.49545 4.45293 5.50063 4.52186 5.48713C4.59079 5.47362 4.65485 5.44272 4.7074 5.39611Z" fill="#DB251A"/>
<path d="M10.6613 9.50435C10.5807 9.57351 10.4759 9.60782 10.37 9.59972C10.2641 9.59162 10.1657 9.54177 10.0965 9.46115C10.0274 9.38052 9.99307 9.27572 10.0012 9.1698C10.0093 9.06388 10.0591 8.96551 10.1397 8.89635C10.1717 8.86995 10.2029 8.84035 10.2333 8.80835C10.3589 8.67875 10.4693 8.51555 10.5589 8.32675C10.7149 7.99955 10.8005 7.60995 10.8005 7.20035C10.8005 6.54675 10.5821 5.95395 10.2333 5.59235C10.2035 5.56159 10.1723 5.53222 10.1397 5.50435C10.0591 5.43518 10.0093 5.33681 10.0012 5.23089C9.99307 5.12497 10.0274 5.02017 10.0965 4.93955C10.1657 4.85892 10.2641 4.80907 10.37 4.80097C10.4759 4.79287 10.5807 4.82718 10.6613 4.89635C10.7125 4.94115 10.7613 4.98755 10.8093 5.03715C11.3085 5.55475 11.6005 6.34835 11.6005 7.20035C11.6005 7.72835 11.4885 8.23475 11.2813 8.67075C11.1557 8.93475 10.9965 9.16995 10.8093 9.36355C10.7622 9.41247 10.7128 9.45918 10.6613 9.50355" fill="#DB251A"/>
<path d="M11.4193 11.9344C11.3306 11.989 11.2242 12.0069 11.1226 11.9843C11.0209 11.9616 10.9321 11.9002 10.875 11.8131C10.818 11.726 10.7971 11.6201 10.8168 11.5179C10.8366 11.4157 10.8955 11.3252 10.9809 11.2656C11.3883 10.998 11.7545 10.6724 12.0681 10.2992C12.3786 9.92879 12.6325 9.51444 12.8217 9.06965C13.0729 8.47844 13.2017 7.84242 13.2001 7.20005C13.1997 6.71927 13.1277 6.24122 12.9865 5.78165C12.8448 5.32033 12.6335 4.88332 12.3601 4.48565C12.0862 4.08406 11.754 3.72546 11.3745 3.42165C11.248 3.31962 11.1167 3.22377 10.9809 3.13445C10.8955 3.07492 10.8366 2.98443 10.8168 2.8822C10.7971 2.77996 10.818 2.67405 10.875 2.58696C10.9321 2.49988 11.0209 2.43849 11.1226 2.41583C11.2242 2.39318 11.3306 2.41105 11.4193 2.46565C12.0499 2.8797 12.5939 3.41254 13.0209 4.03445C13.3379 4.49923 13.584 5.00852 13.7513 5.54565C13.9171 6.08143 14.001 6.6392 14.0001 7.20005C14 7.76083 13.9161 8.31844 13.7513 8.85445C13.5298 9.57305 13.1657 10.2396 12.6809 10.8144C12.3175 11.2476 11.8925 11.625 11.4193 11.9344Z" fill="#DB251A"/>
</svg>
