<svg width="18" height="19" viewBox="0 0 18 19" fill="none" xmlns="http://www.w3.org/2000/svg">
<g clip-path="url(#clip0_3029_2157)">
<path fill-rule="evenodd" clip-rule="evenodd" d="M3.6002 1.91249C3.6002 1.4351 3.78984 0.977261 4.1274 0.639696C4.46497 0.30213 4.92281 0.112488 5.4002 0.112488L12.7814 0.112488L16.8002 2.79089V13.9125C16.8002 14.3899 16.6106 14.8477 16.273 15.1853C15.9354 15.5228 15.4776 15.7125 15.0002 15.7125H14.4002V16.3125C14.4002 16.7899 14.2106 17.2477 13.873 17.5853C13.5354 17.9228 13.0776 18.1125 12.6002 18.1125H3.0002C2.52281 18.1125 2.06497 17.9228 1.7274 17.5853C1.38984 17.2477 1.2002 16.7899 1.2002 16.3125V4.31249C1.2002 3.8351 1.38984 3.37726 1.7274 3.0397C2.06497 2.70213 2.52281 2.51249 3.0002 2.51249H3.6002V1.91249ZM3.6002 3.71249H3.0002C2.84107 3.71249 2.68845 3.7757 2.57593 3.88822C2.46341 4.00075 2.4002 4.15336 2.4002 4.31249V16.3125C2.4002 16.4716 2.46341 16.6242 2.57593 16.7368C2.68845 16.8493 2.84107 16.9125 3.0002 16.9125H12.6002C12.7593 16.9125 12.9119 16.8493 13.0245 16.7368C13.137 16.6242 13.2002 16.4716 13.2002 16.3125V15.7125H5.4002C4.92281 15.7125 4.46497 15.5228 4.1274 15.1853C3.78984 14.8477 3.6002 14.3899 3.6002 13.9125V3.71249Z" fill="#969696"/>
</g>
<defs>
<clipPath id="clip0_3029_2157">
<rect width="18" height="18" fill="white" transform="translate(0 0.112488)"/>
</clipPath>
</defs>
</svg>
